<?xml version="1.0" encoding="utf-8"?>
<!-- Generator: Adobe Illustrator 27.3.1, SVG Export Plug-In . SVG Version: 6.00 Build 0)  -->
<svg version="1.1" id="Layer_1" xmlns="http://www.w3.org/2000/svg" xmlns:xlink="http://www.w3.org/1999/xlink" x="0px" y="0px"
	 viewBox="0 0 496 512" style="enable-background:new 0 0 496 512;" xml:space="preserve">
<path d="M165.9,403.6c0,2-2.3,3.6-5.2,3.6c-3.3,0.3-5.6-1.3-5.6-3.6c0-2,2.3-3.6,5.2-3.6C163.3,399.7,165.9,401.3,165.9,403.6z
	 M134.8,399.1c-0.7,2,1.3,4.3,4.3,4.9c2.6,1,5.6,0,6.2-2s-1.3-4.3-4.3-5.2C138.4,396.1,135.5,397.1,134.8,399.1L134.8,399.1z
	 M179,397.4c-2.9,0.7-4.9,2.6-4.6,4.9c0.3,2,2.9,3.3,5.9,2.6c2.9-0.7,4.9-2.6,4.6-4.6C184.6,398.4,181.9,397.1,179,397.4z
	 M244.8,14.2C106.1,14.2,0,119.5,0,258.2C0,369.1,69.8,464,169.5,497.4c12.8,2.3,17.3-5.6,17.3-12.1c0-6.2-0.3-40.4-0.3-61.4
	c0,0-70,15-84.7-29.8c0,0-11.4-29.1-27.8-36.6c0,0-22.9-15.7,1.6-15.4c0,0,24.9,2,38.6,25.8c21.9,38.6,58.6,27.5,72.9,20.9
	c2.3-16,8.8-27.1,16-33.7c-55.9-6.2-112.3-14.3-112.3-110.5c0-27.5,7.6-41.3,23.6-58.9c-2.6-6.5-11.1-33.3,2.6-67.9
	c20.9-6.5,69,27,69,27c20-5.6,41.5-8.5,62.8-8.5s42.8,2.9,62.8,8.5c0,0,48.1-33.6,69-27c13.7,34.7,5.2,61.4,2.6,67.9
	c16,17.7,25.8,31.5,25.8,58.9c0,96.5-58.9,104.2-114.8,110.5c9.2,7.9,17,22.9,17,46.4c0,33.7-0.3,75.4-0.3,83.6
	c0,6.5,4.6,14.4,17.3,12.1C428.2,464,496,369.1,496,258.2C496,119.5,383.5,14.2,244.8,14.2z M97.2,359.1c-1.3,1-1,3.3,0.7,5.2
	c1.6,1.6,3.9,2.3,5.2,1c1.3-1,1-3.3-0.7-5.2C100.8,358.5,98.5,357.8,97.2,359.1z M86.4,351c-0.7,1.3,0.3,2.9,2.3,3.9
	c1.6,1,3.6,0.7,4.3-0.7c0.7-1.3-0.3-2.9-2.3-3.9C88.7,349.7,87.1,350,86.4,351z M118.8,386.6c-1.6,1.3-1,4.3,1.3,6.2
	c2.3,2.3,5.2,2.6,6.5,1c1.3-1.3,0.7-4.3-1.3-6.2C123.1,385.3,120.1,385,118.8,386.6z M107.4,371.9c-1.6,1-1.6,3.6,0,5.9
	s4.3,3.3,5.6,2.3c1.6-1.3,1.6-3.9,0-6.2C111.6,371.6,109,370.6,107.4,371.9L107.4,371.9z"/>
</svg>
